<svg width="81" height="39" viewBox="0 0 81 39" fill="none" xmlns="http://www.w3.org/2000/svg">
<rect width="81" height="39" rx="2" fill="#EEF5FC"/>
<path d="M30.6595 22.3295V28H29.147V25.5415H27.145V28H25.627V22.3295H27.145V24.436H29.147V22.3295H30.6595ZM35.5189 24.4965C35.5189 24.3388 35.4969 24.1885 35.4529 24.0455C35.4126 23.9025 35.3466 23.776 35.2549 23.666C35.1633 23.556 35.0478 23.4698 34.9084 23.4075C34.7691 23.3415 34.6023 23.3085 34.4079 23.3085C34.0449 23.3085 33.7608 23.4112 33.5554 23.6165C33.3501 23.8218 33.2163 24.1152 33.1539 24.4965H35.5189ZM33.1319 25.3985C33.1796 25.9302 33.3299 26.3188 33.5829 26.5645C33.8396 26.8102 34.1733 26.933 34.5839 26.933C34.7929 26.933 34.9726 26.9092 35.1229 26.8615C35.2769 26.8102 35.4108 26.7552 35.5244 26.6965C35.6418 26.6342 35.7463 26.5792 35.8379 26.5315C35.9333 26.4802 36.0268 26.4545 36.1184 26.4545C36.2358 26.4545 36.3274 26.4985 36.3934 26.5865L36.8334 27.1365C36.6721 27.3235 36.4943 27.4793 36.2999 27.604C36.1056 27.725 35.9039 27.8222 35.6949 27.8955C35.4859 27.9652 35.2751 28.0128 35.0624 28.0385C34.8498 28.0678 34.6444 28.0825 34.4464 28.0825C34.0504 28.0825 33.6801 28.0183 33.3354 27.89C32.9944 27.758 32.6956 27.5655 32.4389 27.3125C32.1859 27.0558 31.9861 26.7387 31.8394 26.361C31.6928 25.9833 31.6194 25.5452 31.6194 25.0465C31.6194 24.6615 31.6818 24.2985 31.8064 23.9575C31.9348 23.6165 32.1181 23.3195 32.3564 23.0665C32.5948 22.8135 32.8844 22.6137 33.2254 22.467C33.5664 22.3167 33.9514 22.2415 34.3804 22.2415C34.7434 22.2415 35.0771 22.3002 35.3814 22.4175C35.6894 22.5312 35.9534 22.698 36.1734 22.918C36.3971 23.138 36.5694 23.4093 36.6904 23.732C36.8151 24.051 36.8774 24.4158 36.8774 24.8265C36.8774 24.9402 36.8719 25.0337 36.8609 25.107C36.8499 25.1803 36.8316 25.239 36.8059 25.283C36.7803 25.327 36.7454 25.3582 36.7014 25.3765C36.6574 25.3912 36.6006 25.3985 36.5309 25.3985H33.1319ZM42.7259 23.435H40.7679V28H39.2499V23.435H37.2919V22.3295H42.7259V23.435ZM51.4646 28H49.9466V23.468H48.7201C48.6725 24.1573 48.6028 24.7495 48.5111 25.2445C48.4195 25.7395 48.3095 26.1593 48.1811 26.504C48.0528 26.845 47.9098 27.12 47.7521 27.329C47.5945 27.5343 47.4258 27.6938 47.2461 27.8075C47.0665 27.9175 46.8813 27.9908 46.6906 28.0275C46.5 28.0642 46.3075 28.0825 46.1131 28.0825C45.8858 28.0825 45.7226 28.0642 45.6236 28.0275C45.5246 27.9908 45.4751 27.9377 45.4751 27.868V26.944H45.8161C45.9335 26.944 46.0508 26.9275 46.1681 26.8945C46.2855 26.8578 46.3991 26.7845 46.5091 26.6745C46.6228 26.5645 46.7291 26.4068 46.8281 26.2015C46.9271 25.9962 47.0188 25.723 47.1031 25.382C47.1875 25.041 47.2608 24.6212 47.3231 24.1225C47.3855 23.6238 47.435 23.0262 47.4716 22.3295H51.4646V28ZM55.2763 22.2415C55.7016 22.2415 56.0885 22.3093 56.4368 22.445C56.7851 22.5807 57.084 22.775 57.3333 23.028C57.5826 23.2773 57.7751 23.5817 57.9108 23.941C58.0465 24.3003 58.1143 24.7055 58.1143 25.1565C58.1143 25.6075 58.0465 26.0145 57.9108 26.3775C57.7751 26.7368 57.5826 27.043 57.3333 27.296C57.084 27.549 56.7851 27.7433 56.4368 27.879C56.0885 28.0147 55.7016 28.0825 55.2763 28.0825C54.8473 28.0825 54.4568 28.0147 54.1048 27.879C53.7565 27.7433 53.4576 27.549 53.2083 27.296C52.959 27.043 52.7646 26.7368 52.6253 26.3775C52.4896 26.0145 52.4218 25.6075 52.4218 25.1565C52.4218 24.7055 52.4896 24.3003 52.6253 23.941C52.7646 23.5817 52.959 23.2773 53.2083 23.028C53.4576 22.775 53.7565 22.5807 54.1048 22.445C54.4568 22.3093 54.8473 22.2415 55.2763 22.2415ZM55.2763 26.944C55.709 26.944 56.0298 26.7955 56.2388 26.4985C56.4478 26.1978 56.5523 25.7523 56.5523 25.162C56.5523 24.5753 56.4478 24.1335 56.2388 23.8365C56.0298 23.5358 55.709 23.3855 55.2763 23.3855C54.8326 23.3855 54.5063 23.5358 54.2973 23.8365C54.0883 24.1335 53.9838 24.5753 53.9838 25.162C53.9838 25.7523 54.0883 26.1978 54.2973 26.4985C54.5063 26.7955 54.8326 26.944 55.2763 26.944ZM62.9779 23.435H60.5854V28H59.0674V22.3295H62.9779V23.435ZM66.1366 22.2415C66.562 22.2415 66.9488 22.3093 67.2971 22.445C67.6455 22.5807 67.9443 22.775 68.1936 23.028C68.443 23.2773 68.6355 23.5817 68.7711 23.941C68.9068 24.3003 68.9746 24.7055 68.9746 25.1565C68.9746 25.6075 68.9068 26.0145 68.7711 26.3775C68.6355 26.7368 68.443 27.043 68.1936 27.296C67.9443 27.549 67.6455 27.7433 67.2971 27.879C66.9488 28.0147 66.562 28.0825 66.1366 28.0825C65.7076 28.0825 65.3171 28.0147 64.9651 27.879C64.6168 27.7433 64.318 27.549 64.0686 27.296C63.8193 27.043 63.625 26.7368 63.4856 26.3775C63.35 26.0145 63.2821 25.6075 63.2821 25.1565C63.2821 24.7055 63.35 24.3003 63.4856 23.941C63.625 23.5817 63.8193 23.2773 64.0686 23.028C64.318 22.775 64.6168 22.5807 64.9651 22.445C65.3171 22.3093 65.7076 22.2415 66.1366 22.2415ZM66.1366 26.944C66.5693 26.944 66.8901 26.7955 67.0991 26.4985C67.3081 26.1978 67.4126 25.7523 67.4126 25.162C67.4126 24.5753 67.3081 24.1335 67.0991 23.8365C66.8901 23.5358 66.5693 23.3855 66.1366 23.3855C65.693 23.3855 65.3666 23.5358 65.1576 23.8365C64.9486 24.1335 64.8441 24.5753 64.8441 25.162C64.8441 25.7523 64.9486 26.1978 65.1576 26.4985C65.3666 26.7955 65.693 26.944 66.1366 26.944Z" fill="#B5CBE7"/>
<path d="M19.6389 14.3604H13.543L10.4951 19.6387L13.543 24.9996H19.6389L22.7692 19.6387L19.6389 14.3604Z" fill="#B5CBE7"/>
<path d="M29.2774 9H23.5111L20.6279 14.0309L23.5111 19.0619H29.2774L32.1606 14.0309L29.2774 9Z" fill="#B5CBE7"/>
</svg>
