<svg width="27" height="16" viewBox="0 0 27 16" fill="none" xmlns="http://www.w3.org/2000/svg">
<path d="M19.125 5.50571V3.42857C19.125 1.53429 17.6147 0 15.75 0H3.375C1.51031 0 0 1.53429 0 3.42857V12.5714C0 14.4657 1.51031 16 3.375 16H15.75C17.6147 16 19.125 14.4657 19.125 12.5714V10.5457L27 15V1.14286L19.125 5.50571ZM16.875 12.5714C16.875 13.2029 16.3716 13.7143 15.75 13.7143H3.375C2.75344 13.7143 2.25 13.2029 2.25 12.5714V3.42857C2.25 2.79714 2.75344 2.28571 3.375 2.28571H15.75C16.3716 2.28571 16.875 2.79714 16.875 3.42857V12.5714ZM24.75 11.1117L19.2853 8.02029L24.75 4.99457V11.1117Z" fill="#008CC9"/>
</svg>
