<svg width="558" height="571" viewBox="0 0 558 571" fill="none" xmlns="http://www.w3.org/2000/svg">
<g opacity="0.8">
<path d="M217.731 458.201L159.326 424.481L159.326 357.041L217.731 323.32L276.137 357.041L276.137 424.481L217.731 458.201Z" fill="#D4EEF9"/>
<path opacity="0.4" d="M339.896 458.879L281.49 425.159L281.49 357.718L339.896 323.998L398.301 357.718L398.301 425.159L339.896 458.879Z" fill="#D4EEF9"/>
<path opacity="0.8" d="M279.064 352.293L220.658 318.573L220.658 251.132L279.063 217.412L337.469 251.132L337.469 318.573L279.064 352.293Z" fill="#D4EEF9"/>
<path opacity="0.7" d="M217.704 246.014L159.299 212.294L159.299 144.853L217.704 111.133L276.109 144.853L276.109 212.293L217.704 246.014Z" fill="#D4EEF9"/>
<path opacity="0.5" d="M401.228 352.972L342.822 319.252L342.822 251.811L401.228 218.091L459.633 251.811L459.633 319.251L401.228 352.972Z" fill="#D4EEF9"/>
<path opacity="0.6" d="M339.868 246.691L281.463 212.971L281.463 145.531L339.868 111.811L398.273 145.531L398.273 212.971L339.868 246.691Z" fill="#D4EEF9"/>
<path d="M156.372 351.922L97.967 318.202L97.967 250.761L156.372 217.041L214.777 250.761L214.777 318.202L156.372 351.922Z" fill="#D4EEF9"/>
</g>
</svg>
