<svg width="64" height="64" viewBox="0 0 64 64" fill="none" xmlns="http://www.w3.org/2000/svg">
<path d="M32.0013 37.3337C34.9468 37.3337 37.3346 34.9458 37.3346 32.0003C37.3346 29.0548 34.9468 26.667 32.0013 26.667C29.0558 26.667 26.668 29.0548 26.668 32.0003C26.668 34.9458 29.0558 37.3337 32.0013 37.3337Z" stroke="#E63946" stroke-width="2" stroke-linecap="round" stroke-linejoin="round"/>
<path d="M43.3114 20.6932C44.799 22.1791 45.9792 23.9437 46.7843 25.8861C47.5895 27.8285 48.004 29.9105 48.004 32.0132C48.004 34.1158 47.5895 36.1978 46.7843 38.1402C45.9792 40.0826 44.799 41.8472 43.3114 43.3332M20.6981 43.3065C19.2104 41.8205 18.0303 40.0559 17.2251 38.1135C16.4199 36.1712 16.0055 34.0891 16.0055 31.9865C16.0055 29.8838 16.4199 27.8018 17.2251 25.8594C18.0303 23.9171 19.2104 22.1525 20.6981 20.6665M50.8581 13.1465C55.8573 18.1472 58.6657 24.9288 58.6657 31.9998C58.6657 39.0709 55.8573 45.8524 50.8581 50.8532M13.1514 50.8532C8.15216 45.8524 5.34375 39.0709 5.34375 31.9998C5.34375 24.9288 8.15216 18.1472 13.1514 13.1465" stroke="#E63946" stroke-width="2" stroke-linecap="round" stroke-linejoin="round"/>
</svg>
