<svg width="396" height="430" viewBox="0 0 396 430" fill="none" xmlns="http://www.w3.org/2000/svg">
<path d="M337.374 95.3891L371.094 153.794L337.374 212.199L269.934 212.199L236.213 153.794L269.933 95.3891L337.374 95.3891Z" fill="#D4EEF9"/>
<path opacity="0.4" d="M231.917 33.7202L265.637 92.1252L231.917 150.53L164.476 150.53L130.756 92.1253L164.476 33.7202L231.917 33.7202Z" fill="#D4EEF9"/>
<path opacity="0.8" d="M231.304 156.441L265.024 214.846L231.304 273.251L163.863 273.251L130.143 214.846L163.863 156.441L231.304 156.441Z" fill="#D4EEF9"/>
<path opacity="0.7" d="M231.304 279.162L265.024 337.567L231.304 395.972L163.863 395.972L130.143 337.567L163.863 279.162L231.304 279.162Z" fill="#D4EEF9"/>
<path opacity="0.5" d="M125.847 94.7719L159.567 153.177L125.847 211.582L58.4062 211.582L24.686 153.177L58.4061 94.772L125.847 94.7719Z" fill="#D4EEF9"/>
<path opacity="0.6" d="M125.847 217.494L159.567 275.899L125.847 334.304L58.4062 334.304L24.686 275.899L58.4061 217.494L125.847 217.494Z" fill="#D4EEF9"/>
<path d="M337.374 218.11L371.094 276.515L337.374 334.92L269.934 334.92L236.213 276.515L269.933 218.11L337.374 218.11Z" fill="#D4EEF9"/>
</svg>
