<svg width="55" height="55" viewBox="0 0 55 55" fill="none" xmlns="http://www.w3.org/2000/svg">
<circle cx="27.5" cy="27.5" r="27.5" fill="#ECF6FB"/>
<path d="M44.2819 37.3775H43.0013V34.9433C43.0013 34.7307 42.9179 34.5268 42.7695 34.3764C42.6211 34.2261 42.4198 34.1416 42.2099 34.1416H40.5696V19.2012H44.2963C44.4555 19.1989 44.6094 19.143 44.734 19.0425C44.8585 18.942 44.9466 18.8024 44.9844 18.6457C45.0223 18.489 45.0077 18.3241 44.9431 18.1766C44.8784 18.0292 44.7673 17.9077 44.6272 17.8311L28.3394 9.08551C28.2353 9.02937 28.1192 9 28.0013 9C27.8834 9 27.7673 9.02937 27.6632 9.08551L11.3898 17.8457C11.2565 17.9254 11.1521 18.0465 11.0922 18.1911C11.0322 18.3357 11.0199 18.496 11.0571 18.6483C11.0943 18.8005 11.1789 18.9365 11.2985 19.0361C11.418 19.1358 11.5661 19.1937 11.7207 19.2012H15.4473V34.1416H13.7927C13.5828 34.1416 13.3815 34.2261 13.2331 34.3764C13.0847 34.5268 13.0013 34.7307 13.0013 34.9433V37.3775H11.7207C11.6225 37.3773 11.5253 37.3975 11.4351 37.4368C11.3448 37.4761 11.2635 37.5338 11.1961 37.6061C11.1287 37.6785 11.0767 37.7641 11.0432 37.8577C11.0096 37.9512 10.9954 38.0507 11.0013 38.15V41.313C11.0013 41.5063 11.0771 41.6916 11.212 41.8283C11.3469 41.965 11.5299 42.0418 11.7207 42.0418H44.2819C44.4727 42.0418 44.6557 41.965 44.7906 41.8283C44.9255 41.6916 45.0013 41.5063 45.0013 41.313V38.15C45.0072 38.0507 44.9929 37.9512 44.9594 37.8577C44.9259 37.7641 44.8739 37.6785 44.8065 37.6061C44.7391 37.5338 44.6577 37.4761 44.5675 37.4368C44.4773 37.3975 44.3801 37.3773 44.2819 37.3775ZM39.1164 34.1562H37.9797V19.2012H39.1164V34.1562ZM22.3106 19.2012V34.1416H19.433V19.2012H22.3106ZM23.7495 19.2012H24.8862V34.1416H23.7495V19.2012ZM26.325 19.2012H29.7063V34.1416H26.325V19.2012ZM31.1452 19.2012H32.2819V34.1416H31.1452V19.2012ZM33.7207 19.2012H36.5984V34.1416H33.7207V19.2012ZM27.9653 10.5431L41.4042 17.7436H14.6128L27.9653 10.5431ZM16.8862 19.2012H18.0229V34.1416H16.8862V19.2012ZM14.584 35.745H41.4186V37.3046H14.584V35.745ZM43.5624 40.5405H12.4401V38.8351H13.4761C13.5806 38.8567 13.6882 38.8567 13.7927 38.8351H42.2099C42.3144 38.8567 42.422 38.8567 42.5265 38.8351H43.5624V40.5405Z" fill="#3C3C3C"/>
<path d="M28.0084 16.6946C28.4296 16.6946 28.8413 16.5681 29.1915 16.3311C29.5417 16.094 29.8146 15.7571 29.9758 15.3629C30.137 14.9687 30.1792 14.535 30.097 14.1165C30.0148 13.6981 29.812 13.3137 29.5142 13.012C29.2164 12.7103 28.8369 12.5048 28.4238 12.4216C28.0108 12.3383 27.5826 12.3811 27.1935 12.5443C26.8044 12.7076 26.4718 12.9841 26.2378 13.3389C26.0038 13.6936 25.8789 14.1107 25.8789 14.5374C25.8789 14.8207 25.934 15.1012 26.041 15.3629C26.148 15.6246 26.3049 15.8625 26.5026 16.0628C26.7004 16.2631 26.9351 16.422 27.1935 16.5304C27.4518 16.6388 27.7288 16.6946 28.0084 16.6946ZM28.0084 13.7794C28.145 13.7794 28.2785 13.8205 28.3921 13.8973C28.5057 13.9742 28.5942 14.0835 28.6465 14.2113C28.6988 14.3392 28.7124 14.4798 28.6858 14.6156C28.6591 14.7513 28.5934 14.8759 28.4968 14.9738C28.4002 15.0716 28.2771 15.1383 28.1431 15.1653C28.0092 15.1923 27.8703 15.1784 27.7441 15.1255C27.6179 15.0725 27.51 14.9828 27.4342 14.8678C27.3583 14.7527 27.3178 14.6174 27.3178 14.4791C27.3322 14.3038 27.4113 14.1405 27.5393 14.0216C27.6673 13.9028 27.8348 13.8371 28.0084 13.8377V13.7794Z" fill="#3C3C3C"/>
</svg>
