<svg width="55" height="55" viewBox="0 0 55 55" fill="none" xmlns="http://www.w3.org/2000/svg">
<circle cx="27.5" cy="27.5" r="27.5" fill="#ECF6FB"/>
<path d="M27.6936 41H28H28.3064H28.8563V40.9714C36.1783 40.5271 42 34.4317 42 27.0002C42 19.5682 36.1783 13.4729 28.8563 13.029C28.6746 13.018 28.4918 13.012 28.3082 13.0083C28.2058 13.0055 28.1033 13 28 13C27.8967 13 27.7942 13.0055 27.6918 13.0083C27.5082 13.012 27.3254 13.018 27.1437 13.029C19.8217 13.4729 14 19.5682 14 27.0002C14 34.4317 19.8217 40.5271 27.1437 40.9714V41H27.6936ZM30.5284 39.0243C32.5769 37.0154 34.0658 34.9194 34.9835 32.7495H38.8543C37.1694 35.9184 34.1381 38.2668 30.5284 39.0243ZM40.2875 27.0002C40.2875 28.4144 40.0444 29.7718 39.6027 31.0374H35.585C35.9312 29.8069 36.1046 28.5561 36.0944 27.285C36.0824 25.755 35.812 24.3077 35.382 22.9627H39.6027C40.0443 24.2287 40.2875 25.5861 40.2875 27.0002ZM38.8544 21.2505H34.727C33.5237 18.5367 31.7612 16.3589 30.4205 14.9535C34.0782 15.6871 37.1527 18.0499 38.8544 21.2505ZM28.8563 15.8172C30.0024 16.9827 31.6273 18.8785 32.8186 21.2504H28.8563V15.8172ZM28.8563 22.9627H33.5606C34.0534 24.3094 34.3708 25.7693 34.3818 27.3084C34.391 28.569 34.1912 29.8124 33.7931 31.0374H28.8563V22.9627ZM28.8563 32.7495H33.0991C32.1773 34.6402 30.7637 36.4812 28.8563 38.2598V32.7495ZM27.1437 31.0374H22.2069C21.8087 29.8124 21.609 28.569 21.6182 27.3084C21.6293 25.7693 21.9467 24.3094 22.4394 22.9627H27.1436V31.0374H27.1437ZM27.1437 21.2505H23.1814C24.3727 18.8785 25.9976 16.9822 27.1437 15.8167V21.2505ZM25.5797 14.9535C24.2389 16.3589 22.4764 18.5367 21.2732 21.2505H17.1457C18.8472 18.0499 21.9218 15.6871 25.5797 14.9535ZM15.7126 27.0002C15.7126 25.5861 15.9558 24.2287 16.3973 22.9627H20.618C20.188 24.3076 19.9181 25.7549 19.9056 27.285C19.8955 28.5561 20.069 29.8069 20.415 31.0374H16.3973C15.9558 29.7718 15.7126 28.4144 15.7126 27.0002ZM17.1456 32.7495H21.0166C21.9348 34.9194 23.4232 37.0154 25.4721 39.0243C21.8618 38.2668 18.8306 35.9184 17.1456 32.7495ZM22.9009 32.7495H27.1437V38.2598C25.2364 36.4812 23.8227 34.6403 22.9009 32.7495Z" fill="#3C3C3C"/>
</svg>
