<svg width="55" height="55" viewBox="0 0 55 55" fill="none" xmlns="http://www.w3.org/2000/svg">
<circle cx="27.5" cy="27.5" r="27.5" fill="#ECF6FB"/>
<path d="M27.5512 43.0987H27.5498C18.4247 43.0987 11.0007 35.6747 11 26.5492C11 17.424 18.4237 10 27.5492 10C36.6743 10 44.098 17.424 44.098 26.5492C44.098 35.6747 36.6753 43.0987 27.5512 43.0987ZM27.5492 11.3205C19.1519 11.3205 12.3205 18.1523 12.3205 26.5492C12.3212 34.9464 19.1529 41.7782 27.5498 41.7782H27.5512C35.9471 41.7782 42.7775 34.9467 42.7775 26.5492C42.7775 18.1523 35.9461 11.3205 27.5492 11.3205Z" fill="#3C3C3C"/>
<path d="M27.5514 38.2686H27.5504C21.0884 38.2686 15.8307 33.0109 15.8301 26.5489C15.8301 20.0869 21.0874 14.8296 27.5498 14.8296C34.0121 14.8296 39.2694 20.0869 39.2694 26.5489C39.2694 33.0109 34.0127 38.2686 27.5514 38.2686ZM27.5498 16.1501C21.8157 16.1501 17.1506 20.8149 17.1506 26.5489C17.1513 32.2833 21.8167 36.9481 27.5504 36.9481H27.5514C33.2845 36.9481 37.9489 32.283 37.9489 26.5489C37.9489 20.8149 33.2838 16.1501 27.5498 16.1501Z" fill="#3C3C3C"/>
<path d="M27.5491 28.6071C26.9998 28.6071 26.4831 28.3938 26.0946 28.0062C25.2913 27.2013 25.2917 25.8953 26.0939 25.0938C26.4828 24.7049 26.9994 24.491 27.5491 24.491C28.0988 24.491 28.6154 24.7049 29.0043 25.0941C29.8066 25.8983 29.8059 27.2043 29.0037 28.0056C28.6151 28.3938 28.0985 28.6071 27.5491 28.6071ZM27.5491 25.8115C27.352 25.8115 27.1672 25.8881 27.0275 26.0277C26.74 26.3153 26.7403 26.7837 27.0282 27.0723C27.3045 27.3483 27.7918 27.3499 28.0704 27.0713C28.3579 26.7841 28.3576 26.3156 28.0701 26.0271C27.9311 25.8884 27.7462 25.8115 27.5491 25.8115Z" fill="#3C3C3C"/>
<path d="M28.5371 26.221C28.3681 26.221 28.1994 26.1566 28.0703 26.0275C27.8125 25.7697 27.8125 25.3518 28.0703 25.0939L32.6271 20.5371C32.885 20.2793 33.3029 20.2793 33.5607 20.5371C33.8186 20.795 33.8186 21.2129 33.5607 21.4707L29.0039 26.0275C28.8752 26.1566 28.7062 26.221 28.5371 26.221Z" fill="#3C3C3C"/>
<path d="M26.5538 26.2141C26.3848 26.2141 26.2161 26.1497 26.087 26.0207L22.7031 22.6365C22.4453 22.3786 22.4453 21.9607 22.7031 21.7025C22.961 21.445 23.3789 21.4447 23.6368 21.7025L27.0206 25.087C27.2784 25.3449 27.2784 25.7628 27.0206 26.0207C26.8915 26.1501 26.7225 26.2141 26.5538 26.2141Z" fill="#3C3C3C"/>
</svg>
